<svg xmlns="http://www.w3.org/2000/svg" xmlns:xlink="http://www.w3.org/1999/xlink" xmlns:s="https://github.com/nturley/netlistsvg" width="850" height="578">
  <style>svg {
    stroke:#000;
    fill:none;
  }
  text {
    fill:#000;
    stroke:none;
    font-size:10px;
    font-weight: bold;
    font-family: "Courier New", monospace;
  }
  .nodelabel {
    text-anchor: middle;
  }
  .inputPortLabel {
    text-anchor: end;
  }
  .splitjoinBody {
    fill:#000;
  }</style>
  <g s:type="reduce_xor" transform="translate(370,457)" s:width="33" s:height="25" id="cell_$auto$simplemap.cc:86:simplemap_bitop$102">
    <s:alias val="$xor"/>
    <s:alias val="$reduce_xor"/>
    <s:alias val="$_XOR_"/>
    <path d="M3,0 A30 25 0 0 1 3,25 A30 25 0 0 0 33,12.5 A30 25 0 0 0 3,0" class="cell_$auto$simplemap.cc:86:simplemap_bitop$102"/>
    <path d="M0,0 A30 25 0 0 1 0,25" class="cell_$auto$simplemap.cc:86:simplemap_bitop$102"/>
    <g s:x="3" s:y="5" s:pid="A"/>
    <g s:x="3" s:y="20" s:pid="B"/>
    <g s:x="33" s:y="12.5" s:pid="Y"/>
  </g>
  <g s:type="reduce_xor" transform="translate(169,403.5)" s:width="33" s:height="25" id="cell_$auto$simplemap.cc:86:simplemap_bitop$103">
    <s:alias val="$xor"/>
    <s:alias val="$reduce_xor"/>
    <s:alias val="$_XOR_"/>
    <path d="M3,0 A30 25 0 0 1 3,25 A30 25 0 0 0 33,12.5 A30 25 0 0 0 3,0" class="cell_$auto$simplemap.cc:86:simplemap_bitop$103"/>
    <path d="M0,0 A30 25 0 0 1 0,25" class="cell_$auto$simplemap.cc:86:simplemap_bitop$103"/>
    <g s:x="3" s:y="5" s:pid="A"/>
    <g s:x="3" s:y="20" s:pid="B"/>
    <g s:x="33" s:y="12.5" s:pid="Y"/>
  </g>
  <g s:type="reduce_xor" transform="translate(302,220)" s:width="33" s:height="25" id="cell_$auto$simplemap.cc:86:simplemap_bitop$104">
    <s:alias val="$xor"/>
    <s:alias val="$reduce_xor"/>
    <s:alias val="$_XOR_"/>
    <path d="M3,0 A30 25 0 0 1 3,25 A30 25 0 0 0 33,12.5 A30 25 0 0 0 3,0" class="cell_$auto$simplemap.cc:86:simplemap_bitop$104"/>
    <path d="M0,0 A30 25 0 0 1 0,25" class="cell_$auto$simplemap.cc:86:simplemap_bitop$104"/>
    <g s:x="3" s:y="5" s:pid="A"/>
    <g s:x="3" s:y="20" s:pid="B"/>
    <g s:x="33" s:y="12.5" s:pid="Y"/>
  </g>
  <g s:type="reduce_xor" transform="translate(443,124.5)" s:width="33" s:height="25" id="cell_$auto$simplemap.cc:86:simplemap_bitop$105">
    <s:alias val="$xor"/>
    <s:alias val="$reduce_xor"/>
    <s:alias val="$_XOR_"/>
    <path d="M3,0 A30 25 0 0 1 3,25 A30 25 0 0 0 33,12.5 A30 25 0 0 0 3,0" class="cell_$auto$simplemap.cc:86:simplemap_bitop$105"/>
    <path d="M0,0 A30 25 0 0 1 0,25" class="cell_$auto$simplemap.cc:86:simplemap_bitop$105"/>
    <g s:x="3" s:y="5" s:pid="A"/>
    <g s:x="3" s:y="20" s:pid="B"/>
    <g s:x="33" s:y="12.5" s:pid="Y"/>
  </g>
  <g s:type="and" transform="translate(170,473)" s:width="30" s:height="25" id="cell_$auto$simplemap.cc:86:simplemap_bitop$107">
    <s:alias val="$and"/>
    <s:alias val="$logic_and"/>
    <s:alias val="$_AND_"/>
    <path d="M0,0 L0,25 L15,25 A15 12.5 0 0 0 15,0 Z" class="cell_$auto$simplemap.cc:86:simplemap_bitop$107"/>
    <g s:x="0" s:y="5" s:pid="A"/>
    <g s:x="0" s:y="20" s:pid="B"/>
    <g s:x="30" s:y="12.5" s:pid="Y"/>
  </g>
  <g s:type="and" transform="translate(237,351)" s:width="30" s:height="25" id="cell_$auto$simplemap.cc:86:simplemap_bitop$108">
    <s:alias val="$and"/>
    <s:alias val="$logic_and"/>
    <s:alias val="$_AND_"/>
    <path d="M0,0 L0,25 L15,25 A15 12.5 0 0 0 15,0 Z" class="cell_$auto$simplemap.cc:86:simplemap_bitop$108"/>
    <g s:x="0" s:y="5" s:pid="A"/>
    <g s:x="0" s:y="20" s:pid="B"/>
    <g s:x="30" s:y="12.5" s:pid="Y"/>
  </g>
  <g s:type="and" transform="translate(371,155.5)" s:width="30" s:height="25" id="cell_$auto$simplemap.cc:86:simplemap_bitop$109">
    <s:alias val="$and"/>
    <s:alias val="$logic_and"/>
    <s:alias val="$_AND_"/>
    <path d="M0,0 L0,25 L15,25 A15 12.5 0 0 0 15,0 Z" class="cell_$auto$simplemap.cc:86:simplemap_bitop$109"/>
    <g s:x="0" s:y="5" s:pid="A"/>
    <g s:x="0" s:y="20" s:pid="B"/>
    <g s:x="30" s:y="12.5" s:pid="Y"/>
  </g>
  <g s:type="and" transform="translate(517,12)" s:width="30" s:height="25" id="cell_$auto$simplemap.cc:86:simplemap_bitop$110">
    <s:alias val="$and"/>
    <s:alias val="$logic_and"/>
    <s:alias val="$_AND_"/>
    <path d="M0,0 L0,25 L15,25 A15 12.5 0 0 0 15,0 Z" class="cell_$auto$simplemap.cc:86:simplemap_bitop$110"/>
    <g s:x="0" s:y="5" s:pid="A"/>
    <g s:x="0" s:y="20" s:pid="B"/>
    <g s:x="30" s:y="12.5" s:pid="Y"/>
  </g>
  <g s:type="reduce_xor" transform="translate(654,347.5)" s:width="33" s:height="25" id="cell_$auto$simplemap.cc:86:simplemap_bitop$141">
    <s:alias val="$xor"/>
    <s:alias val="$reduce_xor"/>
    <s:alias val="$_XOR_"/>
    <path d="M3,0 A30 25 0 0 1 3,25 A30 25 0 0 0 33,12.5 A30 25 0 0 0 3,0" class="cell_$auto$simplemap.cc:86:simplemap_bitop$141"/>
    <path d="M0,0 A30 25 0 0 1 0,25" class="cell_$auto$simplemap.cc:86:simplemap_bitop$141"/>
    <g s:x="3" s:y="5" s:pid="A"/>
    <g s:x="3" s:y="20" s:pid="B"/>
    <g s:x="33" s:y="12.5" s:pid="Y"/>
  </g>
  <g s:type="reduce_xor" transform="translate(654,407.5)" s:width="33" s:height="25" id="cell_$auto$simplemap.cc:86:simplemap_bitop$142">
    <s:alias val="$xor"/>
    <s:alias val="$reduce_xor"/>
    <s:alias val="$_XOR_"/>
    <path d="M3,0 A30 25 0 0 1 3,25 A30 25 0 0 0 33,12.5 A30 25 0 0 0 3,0" class="cell_$auto$simplemap.cc:86:simplemap_bitop$142"/>
    <path d="M0,0 A30 25 0 0 1 0,25" class="cell_$auto$simplemap.cc:86:simplemap_bitop$142"/>
    <g s:x="3" s:y="5" s:pid="A"/>
    <g s:x="3" s:y="20" s:pid="B"/>
    <g s:x="33" s:y="12.5" s:pid="Y"/>
  </g>
  <g s:type="reduce_xor" transform="translate(654,467.5)" s:width="33" s:height="25" id="cell_$auto$simplemap.cc:86:simplemap_bitop$143">
    <s:alias val="$xor"/>
    <s:alias val="$reduce_xor"/>
    <s:alias val="$_XOR_"/>
    <path d="M3,0 A30 25 0 0 1 3,25 A30 25 0 0 0 33,12.5 A30 25 0 0 0 3,0" class="cell_$auto$simplemap.cc:86:simplemap_bitop$143"/>
    <path d="M0,0 A30 25 0 0 1 0,25" class="cell_$auto$simplemap.cc:86:simplemap_bitop$143"/>
    <g s:x="3" s:y="5" s:pid="A"/>
    <g s:x="3" s:y="20" s:pid="B"/>
    <g s:x="33" s:y="12.5" s:pid="Y"/>
  </g>
  <g s:type="reduce_xor" transform="translate(722,34.5)" s:width="33" s:height="25" id="cell_$auto$simplemap.cc:86:simplemap_bitop$144">
    <s:alias val="$xor"/>
    <s:alias val="$reduce_xor"/>
    <s:alias val="$_XOR_"/>
    <path d="M3,0 A30 25 0 0 1 3,25 A30 25 0 0 0 33,12.5 A30 25 0 0 0 3,0" class="cell_$auto$simplemap.cc:86:simplemap_bitop$144"/>
    <path d="M0,0 A30 25 0 0 1 0,25" class="cell_$auto$simplemap.cc:86:simplemap_bitop$144"/>
    <g s:x="3" s:y="5" s:pid="A"/>
    <g s:x="3" s:y="20" s:pid="B"/>
    <g s:x="33" s:y="12.5" s:pid="Y"/>
  </g>
  <g s:type="reduce_xor" transform="translate(654,287.5)" s:width="33" s:height="25" id="cell_$auto$simplemap.cc:86:simplemap_bitop$146">
    <s:alias val="$xor"/>
    <s:alias val="$reduce_xor"/>
    <s:alias val="$_XOR_"/>
    <path d="M3,0 A30 25 0 0 1 3,25 A30 25 0 0 0 33,12.5 A30 25 0 0 0 3,0" class="cell_$auto$simplemap.cc:86:simplemap_bitop$146"/>
    <path d="M0,0 A30 25 0 0 1 0,25" class="cell_$auto$simplemap.cc:86:simplemap_bitop$146"/>
    <g s:x="3" s:y="5" s:pid="A"/>
    <g s:x="3" s:y="20" s:pid="B"/>
    <g s:x="33" s:y="12.5" s:pid="Y"/>
  </g>
  <g s:type="and" transform="translate(444,541)" s:width="30" s:height="25" id="cell_$auto$simplemap.cc:86:simplemap_bitop$151">
    <s:alias val="$and"/>
    <s:alias val="$logic_and"/>
    <s:alias val="$_AND_"/>
    <path d="M0,0 L0,25 L15,25 A15 12.5 0 0 0 15,0 Z" class="cell_$auto$simplemap.cc:86:simplemap_bitop$151"/>
    <g s:x="0" s:y="5" s:pid="A"/>
    <g s:x="0" s:y="20" s:pid="B"/>
    <g s:x="30" s:y="12.5" s:pid="Y"/>
  </g>
  <g s:type="and" transform="translate(237,411)" s:width="30" s:height="25" id="cell_$auto$simplemap.cc:86:simplemap_bitop$167">
    <s:alias val="$and"/>
    <s:alias val="$logic_and"/>
    <s:alias val="$_AND_"/>
    <path d="M0,0 L0,25 L15,25 A15 12.5 0 0 0 15,0 Z" class="cell_$auto$simplemap.cc:86:simplemap_bitop$167"/>
    <g s:x="0" s:y="5" s:pid="A"/>
    <g s:x="0" s:y="20" s:pid="B"/>
    <g s:x="30" s:y="12.5" s:pid="Y"/>
  </g>
  <g s:type="and" transform="translate(517,72)" s:width="30" s:height="25" id="cell_$auto$simplemap.cc:86:simplemap_bitop$168">
    <s:alias val="$and"/>
    <s:alias val="$logic_and"/>
    <s:alias val="$_AND_"/>
    <path d="M0,0 L0,25 L15,25 A15 12.5 0 0 0 15,0 Z" class="cell_$auto$simplemap.cc:86:simplemap_bitop$168"/>
    <g s:x="0" s:y="5" s:pid="A"/>
    <g s:x="0" s:y="20" s:pid="B"/>
    <g s:x="30" s:y="12.5" s:pid="Y"/>
  </g>
  <g s:type="and" transform="translate(589,139.5)" s:width="30" s:height="25" id="cell_$auto$simplemap.cc:86:simplemap_bitop$169">
    <s:alias val="$and"/>
    <s:alias val="$logic_and"/>
    <s:alias val="$_AND_"/>
    <path d="M0,0 L0,25 L15,25 A15 12.5 0 0 0 15,0 Z" class="cell_$auto$simplemap.cc:86:simplemap_bitop$169"/>
    <g s:x="0" s:y="5" s:pid="A"/>
    <g s:x="0" s:y="20" s:pid="B"/>
    <g s:x="30" s:y="12.5" s:pid="Y"/>
  </g>
  <g s:type="and" transform="translate(517,132)" s:width="30" s:height="25" id="cell_$auto$simplemap.cc:86:simplemap_bitop$170">
    <s:alias val="$and"/>
    <s:alias val="$logic_and"/>
    <s:alias val="$_AND_"/>
    <path d="M0,0 L0,25 L15,25 A15 12.5 0 0 0 15,0 Z" class="cell_$auto$simplemap.cc:86:simplemap_bitop$170"/>
    <g s:x="0" s:y="5" s:pid="A"/>
    <g s:x="0" s:y="20" s:pid="B"/>
    <g s:x="30" s:y="12.5" s:pid="Y"/>
  </g>
  <g s:type="and" transform="translate(371,227.5)" s:width="30" s:height="25" id="cell_$auto$simplemap.cc:86:simplemap_bitop$171">
    <s:alias val="$and"/>
    <s:alias val="$logic_and"/>
    <s:alias val="$_AND_"/>
    <path d="M0,0 L0,25 L15,25 A15 12.5 0 0 0 15,0 Z" class="cell_$auto$simplemap.cc:86:simplemap_bitop$171"/>
    <g s:x="0" s:y="5" s:pid="A"/>
    <g s:x="0" s:y="20" s:pid="B"/>
    <g s:x="30" s:y="12.5" s:pid="Y"/>
  </g>
  <g s:type="or" transform="translate(303,358.5)" s:width="30" s:height="25" id="cell_$auto$simplemap.cc:86:simplemap_bitop$174">
    <s:alias val="$or"/>
    <s:alias val="$logic_or"/>
    <s:alias val="$_OR_"/>
    <path d="M0,25 L0,25 L15,25 A15 12.5 0 0 0 15,0 L0,0" class="cell_$auto$simplemap.cc:86:simplemap_bitop$174"/>
    <path d="M0,0 A30 25 0 0 1 0,25" class="cell_$auto$simplemap.cc:86:simplemap_bitop$174"/>
    <g s:x="3" s:y="5" s:pid="A"/>
    <g s:x="3" s:y="20" s:pid="B"/>
    <g s:x="30" s:y="12.5" s:pid="Y"/>
  </g>
  <g s:type="or" transform="translate(589,19.5)" s:width="30" s:height="25" id="cell_$auto$simplemap.cc:86:simplemap_bitop$175">
    <s:alias val="$or"/>
    <s:alias val="$logic_or"/>
    <s:alias val="$_OR_"/>
    <path d="M0,25 L0,25 L15,25 A15 12.5 0 0 0 15,0 L0,0" class="cell_$auto$simplemap.cc:86:simplemap_bitop$175"/>
    <path d="M0,0 A30 25 0 0 1 0,25" class="cell_$auto$simplemap.cc:86:simplemap_bitop$175"/>
    <g s:x="3" s:y="5" s:pid="A"/>
    <g s:x="3" s:y="20" s:pid="B"/>
    <g s:x="30" s:y="12.5" s:pid="Y"/>
  </g>
  <g s:type="or" transform="translate(655,27)" s:width="30" s:height="25" id="cell_$auto$simplemap.cc:86:simplemap_bitop$176">
    <s:alias val="$or"/>
    <s:alias val="$logic_or"/>
    <s:alias val="$_OR_"/>
    <path d="M0,25 L0,25 L15,25 A15 12.5 0 0 0 15,0 L0,0" class="cell_$auto$simplemap.cc:86:simplemap_bitop$176"/>
    <path d="M0,0 A30 25 0 0 1 0,25" class="cell_$auto$simplemap.cc:86:simplemap_bitop$176"/>
    <g s:x="3" s:y="5" s:pid="A"/>
    <g s:x="3" s:y="20" s:pid="B"/>
    <g s:x="30" s:y="12.5" s:pid="Y"/>
  </g>
  <g s:type="or" transform="translate(444,220)" s:width="30" s:height="25" id="cell_$auto$simplemap.cc:86:simplemap_bitop$177">
    <s:alias val="$or"/>
    <s:alias val="$logic_or"/>
    <s:alias val="$_OR_"/>
    <path d="M0,25 L0,25 L15,25 A15 12.5 0 0 0 15,0 L0,0" class="cell_$auto$simplemap.cc:86:simplemap_bitop$177"/>
    <path d="M0,0 A30 25 0 0 1 0,25" class="cell_$auto$simplemap.cc:86:simplemap_bitop$177"/>
    <g s:x="3" s:y="5" s:pid="A"/>
    <g s:x="3" s:y="20" s:pid="B"/>
    <g s:x="30" s:y="12.5" s:pid="Y"/>
  </g>
  <g s:type="and" transform="translate(517,448.5)" s:width="30" s:height="25" id="cell_$auto$simplemap.cc:86:simplemap_bitop$180">
    <s:alias val="$and"/>
    <s:alias val="$logic_and"/>
    <s:alias val="$_AND_"/>
    <path d="M0,0 L0,25 L15,25 A15 12.5 0 0 0 15,0 Z" class="cell_$auto$simplemap.cc:86:simplemap_bitop$180"/>
    <g s:x="0" s:y="5" s:pid="A"/>
    <g s:x="0" s:y="20" s:pid="B"/>
    <g s:x="30" s:y="12.5" s:pid="Y"/>
  </g>
  <g s:type="and" transform="translate(655,227.5)" s:width="30" s:height="25" id="cell_$auto$simplemap.cc:86:simplemap_bitop$182">
    <s:alias val="$and"/>
    <s:alias val="$logic_and"/>
    <s:alias val="$_AND_"/>
    <path d="M0,0 L0,25 L15,25 A15 12.5 0 0 0 15,0 Z" class="cell_$auto$simplemap.cc:86:simplemap_bitop$182"/>
    <g s:x="0" s:y="5" s:pid="A"/>
    <g s:x="0" s:y="20" s:pid="B"/>
    <g s:x="30" s:y="12.5" s:pid="Y"/>
  </g>
  <g s:type="and" transform="translate(589,220)" s:width="30" s:height="25" id="cell_$auto$simplemap.cc:86:simplemap_bitop$183">
    <s:alias val="$and"/>
    <s:alias val="$logic_and"/>
    <s:alias val="$_AND_"/>
    <path d="M0,0 L0,25 L15,25 A15 12.5 0 0 0 15,0 Z" class="cell_$auto$simplemap.cc:86:simplemap_bitop$183"/>
    <g s:x="0" s:y="5" s:pid="A"/>
    <g s:x="0" s:y="20" s:pid="B"/>
    <g s:x="30" s:y="12.5" s:pid="Y"/>
  </g>
  <g s:type="and" transform="translate(589,483.5)" s:width="30" s:height="25" id="cell_$auto$simplemap.cc:86:simplemap_bitop$184">
    <s:alias val="$and"/>
    <s:alias val="$logic_and"/>
    <s:alias val="$_AND_"/>
    <path d="M0,0 L0,25 L15,25 A15 12.5 0 0 0 15,0 Z" class="cell_$auto$simplemap.cc:86:simplemap_bitop$184"/>
    <g s:x="0" s:y="5" s:pid="A"/>
    <g s:x="0" s:y="20" s:pid="B"/>
    <g s:x="30" s:y="12.5" s:pid="Y"/>
  </g>
  <g s:type="reduce_xor" transform="translate(443,441)" s:width="33" s:height="25" id="cell_$auto$simplemap.cc:86:simplemap_bitop$97">
    <s:alias val="$xor"/>
    <s:alias val="$reduce_xor"/>
    <s:alias val="$_XOR_"/>
    <path d="M3,0 A30 25 0 0 1 3,25 A30 25 0 0 0 33,12.5 A30 25 0 0 0 3,0" class="cell_$auto$simplemap.cc:86:simplemap_bitop$97"/>
    <path d="M0,0 A30 25 0 0 1 0,25" class="cell_$auto$simplemap.cc:86:simplemap_bitop$97"/>
    <g s:x="3" s:y="5" s:pid="A"/>
    <g s:x="3" s:y="20" s:pid="B"/>
    <g s:x="33" s:y="12.5" s:pid="Y"/>
  </g>
  <g s:type="reduce_xor" transform="translate(516,363.5)" s:width="33" s:height="25" id="cell_$auto$simplemap.cc:86:simplemap_bitop$98">
    <s:alias val="$xor"/>
    <s:alias val="$reduce_xor"/>
    <s:alias val="$_XOR_"/>
    <path d="M3,0 A30 25 0 0 1 3,25 A30 25 0 0 0 33,12.5 A30 25 0 0 0 3,0" class="cell_$auto$simplemap.cc:86:simplemap_bitop$98"/>
    <path d="M0,0 A30 25 0 0 1 0,25" class="cell_$auto$simplemap.cc:86:simplemap_bitop$98"/>
    <g s:x="3" s:y="5" s:pid="A"/>
    <g s:x="3" s:y="20" s:pid="B"/>
    <g s:x="33" s:y="12.5" s:pid="Y"/>
  </g>
  <g s:type="reduce_xor" transform="translate(516,212.5)" s:width="33" s:height="25" id="cell_$auto$simplemap.cc:86:simplemap_bitop$99">
    <s:alias val="$xor"/>
    <s:alias val="$reduce_xor"/>
    <s:alias val="$_XOR_"/>
    <path d="M3,0 A30 25 0 0 1 3,25 A30 25 0 0 0 33,12.5 A30 25 0 0 0 3,0" class="cell_$auto$simplemap.cc:86:simplemap_bitop$99"/>
    <path d="M0,0 A30 25 0 0 1 0,25" class="cell_$auto$simplemap.cc:86:simplemap_bitop$99"/>
    <g s:x="3" s:y="5" s:pid="A"/>
    <g s:x="3" s:y="20" s:pid="B"/>
    <g s:x="33" s:y="12.5" s:pid="Y"/>
  </g>
  <g s:type="inputExt" transform="translate(12,185)" s:width="30" s:height="20" id="cell_A_82">
    <text x="15" y="-4" class="nodelabel cell_A_82" s:attribute="ref">A_82</text>
    <s:alias val="$_inputExt_"/>
    <path d="M0,0 L0,20 L15,20 L30,10 L15,0 Z" class="cell_A_82"/>
    <g s:x="28" s:y="10" s:pid="Y"/>
  </g>
  <g s:type="inputExt" transform="translate(12,300)" s:width="30" s:height="20" id="cell_B_63">
    <text x="15" y="-4" class="nodelabel cell_B_63" s:attribute="ref">B_63</text>
    <s:alias val="$_inputExt_"/>
    <path d="M0,0 L0,20 L15,20 L30,10 L15,0 Z" class="cell_B_63"/>
    <g s:x="28" s:y="10" s:pid="Y"/>
  </g>
  <g s:type="inputExt" transform="translate(373,389.5)" s:width="30" s:height="20" id="cell_C_in">
    <text x="15" y="-4" class="nodelabel cell_C_in" s:attribute="ref">C_in</text>
    <s:alias val="$_inputExt_"/>
    <path d="M0,0 L0,20 L15,20 L30,10 L15,0 Z" class="cell_C_in"/>
    <g s:x="28" s:y="10" s:pid="Y"/>
  </g>
  <g s:type="outputExt" transform="translate(790,300)" s:width="30" s:height="20" id="cell_Sum_8263">
    <text x="15" y="-4" class="nodelabel cell_Sum_8263" s:attribute="ref">Sum_8263</text>
    <s:alias val="$_outputExt_"/>
    <path d="M30,0 L30,20 L15,20 L0,10 L15,0 Z" class="cell_Sum_8263"/>
    <g s:x="0" s:y="10" s:pid="A"/>
  </g>
  <g s:type="outputExt" transform="translate(790,37)" s:width="30" s:height="20" id="cell_C_out">
    <text x="15" y="-4" class="nodelabel cell_C_out" s:attribute="ref">C_out</text>
    <s:alias val="$_outputExt_"/>
    <path d="M30,0 L30,20 L15,20 L0,10 L15,0 Z" class="cell_C_out"/>
    <g s:x="0" s:y="10" s:pid="A"/>
  </g>
  <g s:type="join" transform="translate(732.75,289.5)" s:width="4" s:height="40" id="cell_$join$,11,12,13,14,">
    <rect width="5" height="80" class="splitjoinBody" s:generic="body"/>
    <s:alias val="$_join_"/>
    <g s:x="5" s:y="20" s:pid="out"/>
    <g transform="translate(0,10)" s:x="0" s:y="10" s:pid="in0">
      <text x="-3" y="-4" class="inputPortLabel">0</text>
    </g>
    <g transform="translate(0,30)" s:x="0" s:y="10" s:pid="in0">
      <text x="-3" y="-4" class="inputPortLabel">1</text>
    </g>
    <g transform="translate(0,50)" s:x="0" s:y="10" s:pid="in0">
      <text x="-3" y="-4" class="inputPortLabel">2</text>
    </g>
    <g transform="translate(0,70)" s:x="0" s:y="10" s:pid="in0">
      <text x="-3" y="-4" class="inputPortLabel">3</text>
    </g>
  </g>
  <g s:type="split" transform="translate(77,174.5)" s:width="5" s:height="40" id="cell_$split$,2,3,4,5,">
    <rect width="5" height="80" class="splitjoinBody" s:generic="body"/>
    <s:alias val="$_split_"/>
    <g s:x="0" s:y="20" s:pid="in"/>
    <g transform="translate(4,10)" s:x="4" s:y="10" s:pid="out0">
      <text x="5" y="-4">0</text>
    </g>
    <g transform="translate(4,30)" s:x="4" s:y="10" s:pid="out0">
      <text x="5" y="-4">1</text>
    </g>
    <g transform="translate(4,50)" s:x="4" s:y="10" s:pid="out0">
      <text x="5" y="-4">2</text>
    </g>
    <g transform="translate(4,70)" s:x="4" s:y="10" s:pid="out0">
      <text x="5" y="-4">3</text>
    </g>
  </g>
  <g s:type="split" transform="translate(77,289.5)" s:width="5" s:height="40" id="cell_$split$,6,7,8,9,">
    <rect width="5" height="80" class="splitjoinBody" s:generic="body"/>
    <s:alias val="$_split_"/>
    <g s:x="0" s:y="20" s:pid="in"/>
    <g transform="translate(4,10)" s:x="4" s:y="10" s:pid="out0">
      <text x="5" y="-4">0</text>
    </g>
    <g transform="translate(4,30)" s:x="4" s:y="10" s:pid="out0">
      <text x="5" y="-4">1</text>
    </g>
    <g transform="translate(4,50)" s:x="4" s:y="10" s:pid="out0">
      <text x="5" y="-4">2</text>
    </g>
    <g transform="translate(4,70)" s:x="4" s:y="10" s:pid="out0">
      <text x="5" y="-4">3</text>
    </g>
  </g>
  <line x1="82" x2="109" y1="185" y2="185" class="net_2"/>
  <line x1="109" x2="109" y1="185" y2="462" class="net_2"/>
  <circle cx="109" cy="462" r="2" style="fill:#000" class="net_2"/>
  <line x1="109" x2="373" y1="462" y2="462" class="net_2"/>
  <line x1="82" x2="109" y1="185" y2="185" class="net_2"/>
  <line x1="109" x2="109" y1="185" y2="478" class="net_2"/>
  <line x1="109" x2="170" y1="478" y2="478" class="net_2"/>
  <line x1="82" x2="99" y1="300" y2="300" class="net_6"/>
  <line x1="99" x2="99" y1="300" y2="508" class="net_6"/>
  <line x1="99" x2="345" y1="508" y2="508" class="net_6"/>
  <line x1="345" x2="345" y1="508" y2="477" class="net_6"/>
  <line x1="345" x2="373" y1="477" y2="477" class="net_6"/>
  <line x1="82" x2="99" y1="300" y2="300" class="net_6"/>
  <line x1="99" x2="99" y1="300" y2="493" class="net_6"/>
  <circle cx="99" cy="493" r="2" style="fill:#000" class="net_6"/>
  <line x1="99" x2="170" y1="493" y2="493" class="net_6"/>
  <line x1="82" x2="139" y1="205" y2="205" class="net_3"/>
  <line x1="139" x2="139" y1="205" y2="408.5" class="net_3"/>
  <line x1="139" x2="172" y1="408.5" y2="408.5" class="net_3"/>
  <line x1="82" x2="139" y1="205" y2="205" class="net_3"/>
  <line x1="139" x2="139" y1="205" y2="356" class="net_3"/>
  <circle cx="139" cy="356" r="2" style="fill:#000" class="net_3"/>
  <line x1="139" x2="237" y1="356" y2="356" class="net_3"/>
  <line x1="82" x2="129" y1="320" y2="320" class="net_7"/>
  <line x1="129" x2="129" y1="320" y2="423.5" class="net_7"/>
  <line x1="129" x2="172" y1="423.5" y2="423.5" class="net_7"/>
  <line x1="82" x2="129" y1="320" y2="320" class="net_7"/>
  <line x1="129" x2="129" y1="320" y2="371" class="net_7"/>
  <circle cx="129" cy="371" r="2" style="fill:#000" class="net_7"/>
  <line x1="129" x2="237" y1="371" y2="371" class="net_7"/>
  <line x1="82" x2="305" y1="225" y2="225" class="net_4"/>
  <line x1="82" x2="149" y1="225" y2="225" class="net_4"/>
  <line x1="149" x2="149" y1="225" y2="160.5" class="net_4"/>
  <circle cx="149" cy="225" r="2" style="fill:#000" class="net_4"/>
  <line x1="149" x2="371" y1="160.5" y2="160.5" class="net_4"/>
  <line x1="82" x2="277" y1="340" y2="340" class="net_8"/>
  <line x1="277" x2="277" y1="340" y2="240" class="net_8"/>
  <line x1="277" x2="305" y1="240" y2="240" class="net_8"/>
  <line x1="82" x2="159" y1="340" y2="340" class="net_8"/>
  <line x1="159" x2="159" y1="340" y2="175.5" class="net_8"/>
  <circle cx="159" cy="340" r="2" style="fill:#000" class="net_8"/>
  <line x1="159" x2="371" y1="175.5" y2="175.5" class="net_8"/>
  <line x1="82" x2="99" y1="245" y2="245" class="net_5"/>
  <line x1="99" x2="99" y1="245" y2="129.5" class="net_5"/>
  <circle cx="99" cy="129.5" r="2" style="fill:#000" class="net_5"/>
  <line x1="99" x2="446" y1="129.5" y2="129.5" class="net_5"/>
  <line x1="82" x2="99" y1="245" y2="245" class="net_5"/>
  <line x1="99" x2="99" y1="245" y2="17" class="net_5"/>
  <line x1="99" x2="517" y1="17" y2="17" class="net_5"/>
  <line x1="82" x2="119" y1="360" y2="360" class="net_9"/>
  <line x1="119" x2="119" y1="360" y2="144.5" class="net_9"/>
  <circle cx="119" cy="144.5" r="2" style="fill:#000" class="net_9"/>
  <line x1="119" x2="446" y1="144.5" y2="144.5" class="net_9"/>
  <line x1="82" x2="119" y1="360" y2="360" class="net_9"/>
  <line x1="119" x2="119" y1="360" y2="32" class="net_9"/>
  <line x1="119" x2="517" y1="32" y2="32" class="net_9"/>
  <line x1="476" x2="486" y1="453.5" y2="453.5" class="net_24"/>
  <line x1="486" x2="486" y1="453.5" y2="352.5" class="net_24"/>
  <circle cx="486" cy="453.5" r="2" style="fill:#000" class="net_24"/>
  <line x1="486" x2="657" y1="352.5" y2="352.5" class="net_24"/>
  <line x1="476" x2="517" y1="453.5" y2="453.5" class="net_24"/>
  <line x1="474" x2="506" y1="553.5" y2="553.5" class="net_25"/>
  <line x1="506" x2="506" y1="553.5" y2="398.5" class="net_25"/>
  <line x1="506" x2="629" y1="398.5" y2="398.5" class="net_25"/>
  <line x1="629" x2="629" y1="398.5" y2="367.5" class="net_25"/>
  <line x1="629" x2="657" y1="367.5" y2="367.5" class="net_25"/>
  <line x1="474" x2="506" y1="553.5" y2="553.5" class="net_25"/>
  <line x1="506" x2="506" y1="553.5" y2="468.5" class="net_25"/>
  <circle cx="506" cy="468.5" r="2" style="fill:#000" class="net_25"/>
  <line x1="506" x2="517" y1="468.5" y2="468.5" class="net_25"/>
  <line x1="549" x2="569" y1="376" y2="376" class="net_26"/>
  <line x1="569" x2="569" y1="376" y2="412.5" class="net_26"/>
  <circle cx="569" cy="376" r="2" style="fill:#000" class="net_26"/>
  <circle cx="569" cy="412.5" r="2" style="fill:#000" class="net_26"/>
  <line x1="569" x2="657" y1="412.5" y2="412.5" class="net_26"/>
  <line x1="549" x2="569" y1="376" y2="376" class="net_26"/>
  <line x1="569" x2="569" y1="376" y2="240" class="net_26"/>
  <line x1="569" x2="589" y1="240" y2="240" class="net_26"/>
  <line x1="549" x2="569" y1="376" y2="376" class="net_26"/>
  <line x1="569" x2="569" y1="376" y2="488.5" class="net_26"/>
  <line x1="569" x2="589" y1="488.5" y2="488.5" class="net_26"/>
  <line x1="547" x2="629" y1="461" y2="461" class="net_27"/>
  <line x1="629" x2="629" y1="461" y2="427.5" class="net_27"/>
  <line x1="629" x2="657" y1="427.5" y2="427.5" class="net_27"/>
  <line x1="547" x2="559" y1="461" y2="461" class="net_27"/>
  <line x1="559" x2="559" y1="461" y2="255" class="net_27"/>
  <line x1="559" x2="629" y1="255" y2="255" class="net_27"/>
  <line x1="629" x2="629" y1="255" y2="247.5" class="net_27"/>
  <circle cx="559" cy="461" r="2" style="fill:#000" class="net_27"/>
  <line x1="629" x2="655" y1="247.5" y2="247.5" class="net_27"/>
  <line x1="547" x2="559" y1="461" y2="461" class="net_27"/>
  <line x1="559" x2="559" y1="461" y2="503.5" class="net_27"/>
  <line x1="559" x2="589" y1="503.5" y2="503.5" class="net_27"/>
  <line x1="549" x2="579" y1="225" y2="225" class="net_28"/>
  <line x1="579" x2="579" y1="225" y2="472.5" class="net_28"/>
  <circle cx="579" cy="225" r="2" style="fill:#000" class="net_28"/>
  <line x1="579" x2="657" y1="472.5" y2="472.5" class="net_28"/>
  <line x1="549" x2="589" y1="225" y2="225" class="net_28"/>
  <line x1="619" x2="629" y1="496" y2="496" class="net_29"/>
  <line x1="629" x2="629" y1="496" y2="487.5" class="net_29"/>
  <line x1="629" x2="657" y1="487.5" y2="487.5" class="net_29"/>
  <line x1="685" x2="725" y1="39.5" y2="39.5" class="net_30"/>
  <line x1="685" x2="697" y1="240" y2="240" class="net_31"/>
  <line x1="697" x2="697" y1="240" y2="54.5" class="net_31"/>
  <line x1="697" x2="725" y1="54.5" y2="54.5" class="net_31"/>
  <line x1="401" x2="433" y1="399.5" y2="399.5" class="net_10"/>
  <line x1="433" x2="433" y1="399.5" y2="292.5" class="net_10"/>
  <circle cx="433" cy="399.5" r="2" style="fill:#000" class="net_10"/>
  <line x1="433" x2="657" y1="292.5" y2="292.5" class="net_10"/>
  <line x1="401" x2="433" y1="399.5" y2="399.5" class="net_10"/>
  <line x1="433" x2="433" y1="399.5" y2="546" class="net_10"/>
  <line x1="433" x2="444" y1="546" y2="546" class="net_10"/>
  <line x1="403" x2="413" y1="469.5" y2="469.5" class="net_16"/>
  <line x1="413" x2="413" y1="469.5" y2="307.5" class="net_16"/>
  <circle cx="413" cy="469.5" r="2" style="fill:#000" class="net_16"/>
  <line x1="413" x2="657" y1="307.5" y2="307.5" class="net_16"/>
  <line x1="403" x2="413" y1="469.5" y2="469.5" class="net_16"/>
  <line x1="413" x2="413" y1="469.5" y2="561" class="net_16"/>
  <line x1="413" x2="444" y1="561" y2="561" class="net_16"/>
  <line x1="202" x2="237" y1="416" y2="416" class="net_17"/>
  <line x1="202" x2="222" y1="416" y2="416" class="net_17"/>
  <line x1="222" x2="222" y1="416" y2="446" class="net_17"/>
  <circle cx="222" cy="416" r="2" style="fill:#000" class="net_17"/>
  <line x1="222" x2="446" y1="446" y2="446" class="net_17"/>
  <line x1="200" x2="212" y1="485.5" y2="485.5" class="net_20"/>
  <line x1="212" x2="212" y1="485.5" y2="431" class="net_20"/>
  <circle cx="212" cy="485.5" r="2" style="fill:#000" class="net_20"/>
  <line x1="212" x2="237" y1="431" y2="431" class="net_20"/>
  <line x1="200" x2="212" y1="485.5" y2="485.5" class="net_20"/>
  <line x1="212" x2="212" y1="485.5" y2="519" class="net_20"/>
  <line x1="212" x2="423" y1="519" y2="519" class="net_20"/>
  <line x1="423" x2="423" y1="519" y2="461" class="net_20"/>
  <line x1="423" x2="446" y1="461" y2="461" class="net_20"/>
  <line x1="476" x2="506" y1="137" y2="137" class="net_19"/>
  <line x1="506" x2="506" y1="137" y2="77" class="net_19"/>
  <circle cx="506" cy="137" r="2" style="fill:#000" class="net_19"/>
  <line x1="506" x2="517" y1="77" y2="77" class="net_19"/>
  <line x1="476" x2="517" y1="137" y2="137" class="net_19"/>
  <line x1="476" x2="506" y1="137" y2="137" class="net_19"/>
  <line x1="506" x2="506" y1="137" y2="217.5" class="net_19"/>
  <line x1="506" x2="519" y1="217.5" y2="217.5" class="net_19"/>
  <line x1="401" x2="486" y1="168" y2="168" class="net_22"/>
  <line x1="486" x2="486" y1="168" y2="92" class="net_22"/>
  <line x1="486" x2="517" y1="92" y2="92" class="net_22"/>
  <line x1="401" x2="413" y1="168" y2="168" class="net_22"/>
  <line x1="413" x2="413" y1="168" y2="225" class="net_22"/>
  <circle cx="413" cy="168" r="2" style="fill:#000" class="net_22"/>
  <line x1="413" x2="447" y1="225" y2="225" class="net_22"/>
  <line x1="547" x2="589" y1="144.5" y2="144.5" class="net_34"/>
  <line x1="333" x2="355" y1="371" y2="371" class="net_35"/>
  <line x1="355" x2="355" y1="371" y2="201.5" class="net_35"/>
  <line x1="355" x2="559" y1="201.5" y2="201.5" class="net_35"/>
  <line x1="559" x2="559" y1="201.5" y2="159.5" class="net_35"/>
  <circle cx="355" cy="371" r="2" style="fill:#000" class="net_35"/>
  <line x1="559" x2="589" y1="159.5" y2="159.5" class="net_35"/>
  <line x1="333" x2="355" y1="371" y2="371" class="net_35"/>
  <line x1="355" x2="355" y1="371" y2="247.5" class="net_35"/>
  <circle cx="355" cy="247.5" r="2" style="fill:#000" class="net_35"/>
  <line x1="355" x2="371" y1="247.5" y2="247.5" class="net_35"/>
  <line x1="333" x2="355" y1="371" y2="371" class="net_35"/>
  <line x1="355" x2="355" y1="371" y2="530" class="net_35"/>
  <line x1="355" x2="496" y1="530" y2="530" class="net_35"/>
  <line x1="496" x2="496" y1="530" y2="383.5" class="net_35"/>
  <line x1="496" x2="519" y1="383.5" y2="383.5" class="net_35"/>
  <line x1="335" x2="345" y1="232.5" y2="232.5" class="net_18"/>
  <line x1="345" x2="345" y1="232.5" y2="190.5" class="net_18"/>
  <line x1="345" x2="496" y1="190.5" y2="190.5" class="net_18"/>
  <line x1="496" x2="496" y1="190.5" y2="152" class="net_18"/>
  <circle cx="345" cy="232.5" r="2" style="fill:#000" class="net_18"/>
  <line x1="496" x2="517" y1="152" y2="152" class="net_18"/>
  <line x1="335" x2="371" y1="232.5" y2="232.5" class="net_18"/>
  <line x1="335" x2="345" y1="232.5" y2="232.5" class="net_18"/>
  <line x1="345" x2="345" y1="232.5" y2="368.5" class="net_18"/>
  <line x1="345" x2="519" y1="368.5" y2="368.5" class="net_18"/>
  <line x1="267" x2="306" y1="363.5" y2="363.5" class="net_21"/>
  <line x1="267" x2="277" y1="423.5" y2="423.5" class="net_32"/>
  <line x1="277" x2="277" y1="423.5" y2="378.5" class="net_32"/>
  <line x1="277" x2="306" y1="378.5" y2="378.5" class="net_32"/>
  <line x1="547" x2="592" y1="24.5" y2="24.5" class="net_23"/>
  <line x1="547" x2="559" y1="84.5" y2="84.5" class="net_33"/>
  <line x1="559" x2="559" y1="84.5" y2="39.5" class="net_33"/>
  <line x1="559" x2="592" y1="39.5" y2="39.5" class="net_33"/>
  <line x1="619" x2="658" y1="32" y2="32" class="net_38"/>
  <line x1="619" x2="629" y1="152" y2="152" class="net_36"/>
  <line x1="629" x2="629" y1="152" y2="47" class="net_36"/>
  <line x1="629" x2="658" y1="47" y2="47" class="net_36"/>
  <line x1="401" x2="447" y1="240" y2="240" class="net_37"/>
  <line x1="619" x2="655" y1="232.5" y2="232.5" class="net_40"/>
  <line x1="474" x2="519" y1="232.5" y2="232.5" class="net_39"/>
  <line x1="738.75" x2="790" y1="310" y2="310" class="net_11,12,13,14"/>
  <line x1="755" x2="790" y1="47" y2="47" class="net_15"/>
  <line x1="687" x2="732.75" y1="300" y2="300" class="net_11"/>
  <line x1="687" x2="697" y1="360" y2="360" class="net_12"/>
  <line x1="697" x2="697" y1="360" y2="320" class="net_12"/>
  <line x1="697" x2="732.75" y1="320" y2="320" class="net_12"/>
  <line x1="687" x2="707" y1="420" y2="420" class="net_13"/>
  <line x1="707" x2="707" y1="420" y2="340" class="net_13"/>
  <line x1="707" x2="732.75" y1="340" y2="340" class="net_13"/>
  <line x1="687" x2="733.25" y1="480" y2="480" class="net_14"/>
  <line x1="733.25" x2="733.25" y1="480" y2="360.5" class="net_14"/>
  <line x1="40" x2="77" y1="195" y2="195" class="net_2,3,4,5"/>
  <line x1="40" x2="77" y1="310" y2="310" class="net_6,7,8,9"/>
</svg>
