<svg xmlns="http://www.w3.org/2000/svg" xmlns:xlink="http://www.w3.org/1999/xlink" xmlns:s="https://github.com/nturley/netlistsvg" width="321" height="129">
  <style>svg {
    stroke:#000;
    fill:none;
  }
  text {
    fill:#000;
    stroke:none;
    font-size:10px;
    font-weight: bold;
    font-family: "Courier New", monospace;
  }
  .nodelabel {
    text-anchor: middle;
  }
  .inputPortLabel {
    text-anchor: end;
  }
  .splitjoinBody {
    fill:#000;
  }</style>
  <g s:type="add" transform="translate(78.66666666666667,27)" s:width="25" s:height="25" id="cell_$add$designs/adder_4b/adder_4b.v:8$1">
    <s:alias val="$add"/>
    <circle r="12.5" cx="12.5" cy="12.5" class="cell_$add$designs/adder_4b/adder_4b.v:8$1"/>
    <line x1="7.5" x2="17.5" y1="12.5" y2="12.5" class="cell_$add$designs/adder_4b/adder_4b.v:8$1"/>
    <line x1="12.5" x2="12.5" y1="7.5" y2="17.5" class="cell_$add$designs/adder_4b/adder_4b.v:8$1"/>
    <g s:x="3" s:y="5" s:pid="A"/>
    <g s:x="3" s:y="20" s:pid="B"/>
    <g s:x="25" s:y="12.5" s:pid="Y"/>
  </g>
  <g s:type="add" transform="translate(142,34.5)" s:width="25" s:height="25" id="cell_$add$designs/adder_4b/adder_4b.v:8$2">
    <s:alias val="$add"/>
    <circle r="12.5" cx="12.5" cy="12.5" class="cell_$add$designs/adder_4b/adder_4b.v:8$2"/>
    <line x1="7.5" x2="17.5" y1="12.5" y2="12.5" class="cell_$add$designs/adder_4b/adder_4b.v:8$2"/>
    <line x1="12.5" x2="12.5" y1="7.5" y2="17.5" class="cell_$add$designs/adder_4b/adder_4b.v:8$2"/>
    <g s:x="3" s:y="5" s:pid="A"/>
    <g s:x="3" s:y="20" s:pid="B"/>
    <g s:x="25" s:y="12.5" s:pid="Y"/>
  </g>
  <g s:type="inputExt" transform="translate(12,22)" s:width="30" s:height="20" id="cell_A_82">
    <text x="15" y="-4" class="nodelabel cell_A_82" s:attribute="ref">A_82</text>
    <s:alias val="$_inputExt_"/>
    <path d="M0,0 L0,20 L15,20 L30,10 L15,0 Z" class="cell_A_82"/>
    <g s:x="28" s:y="10" s:pid="Y"/>
  </g>
  <g s:type="inputExt" transform="translate(12,87)" s:width="30" s:height="20" id="cell_B_63">
    <text x="15" y="-4" class="nodelabel cell_B_63" s:attribute="ref">B_63</text>
    <s:alias val="$_inputExt_"/>
    <path d="M0,0 L0,20 L15,20 L30,10 L15,0 Z" class="cell_B_63"/>
    <g s:x="28" s:y="10" s:pid="Y"/>
  </g>
  <g s:type="inputExt" transform="translate(77,97)" s:width="30" s:height="20" id="cell_C_in">
    <text x="15" y="-4" class="nodelabel cell_C_in" s:attribute="ref">C_in</text>
    <s:alias val="$_inputExt_"/>
    <path d="M0,0 L0,20 L15,20 L30,10 L15,0 Z" class="cell_C_in"/>
    <g s:x="28" s:y="10" s:pid="Y"/>
  </g>
  <g s:type="outputExt" transform="translate(261,27)" s:width="30" s:height="20" id="cell_Sum_8263">
    <text x="15" y="-4" class="nodelabel cell_Sum_8263" s:attribute="ref">Sum_8263</text>
    <s:alias val="$_outputExt_"/>
    <path d="M30,0 L30,20 L15,20 L0,10 L15,0 Z" class="cell_Sum_8263"/>
    <g s:x="0" s:y="10" s:pid="A"/>
  </g>
  <g s:type="outputExt" transform="translate(261,92)" s:width="30" s:height="20" id="cell_C_out">
    <text x="15" y="-4" class="nodelabel cell_C_out" s:attribute="ref">C_out</text>
    <s:alias val="$_outputExt_"/>
    <path d="M30,0 L30,20 L15,20 L0,10 L15,0 Z" class="cell_C_out"/>
    <g s:x="0" s:y="10" s:pid="A"/>
  </g>
  <g s:type="split" transform="translate(202,26.5)" s:width="5" s:height="40" id="cell_$split$,11,12,13,14,15,">
    <rect width="5" height="40" class="splitjoinBody" s:generic="body"/>
    <s:alias val="$_split_"/>
    <g s:x="0" s:y="20" s:pid="in"/>
    <g transform="translate(4,10)" s:x="4" s:y="10" s:pid="out0">
      <text x="5" y="-4">0:3</text>
    </g>
    <g transform="translate(4,30)" s:x="4" s:y="10" s:pid="out0">
      <text x="5" y="-4">4</text>
    </g>
  </g>
  <line x1="40" x2="81.66666666666667" y1="32" y2="32" class="net_2,3,4,5"/>
  <line x1="40" x2="52" y1="97" y2="97" class="net_6,7,8,9"/>
  <line x1="52" x2="52" y1="97" y2="47" class="net_6,7,8,9"/>
  <line x1="52" x2="81.66666666666667" y1="47" y2="47" class="net_6,7,8,9"/>
  <line x1="103.66666666666667" x2="145" y1="39.5" y2="39.5" class="net_16,17,18,19,20"/>
  <line x1="105" x2="117" y1="107" y2="107" class="net_10"/>
  <line x1="117" x2="117" y1="107" y2="54.5" class="net_10"/>
  <line x1="117" x2="145" y1="54.5" y2="54.5" class="net_10"/>
  <line x1="207" x2="261" y1="37" y2="37" class="net_11,12,13,14"/>
  <line x1="207" x2="236" y1="57" y2="57" class="net_15"/>
  <line x1="236" x2="236" y1="57" y2="102" class="net_15"/>
  <line x1="236" x2="261" y1="102" y2="102" class="net_15"/>
  <line x1="167" x2="202" y1="47" y2="47" class="net_11,12,13,14,15"/>
</svg>
